<?xml version="1.0" standalone="no"?>
<!DOCTYPE svg PUBLIC "-//W3C//DTD SVG 20010904//EN"
 "http://www.w3.org/TR/2001/REC-SVG-20010904/DTD/svg10.dtd">
<svg version="1.0" xmlns="http://www.w3.org/2000/svg"
 width="447.000000pt" height="447.000000pt" viewBox="0 0 447.000000 447.000000"
 preserveAspectRatio="xMidYMid meet">

<g transform="translate(0.000000,447.000000) scale(0.100000,-0.100000)"
fill="#000000" stroke="none">
<path d="M2065 4349 c-444 -41 -827 -194 -1173 -467 -104 -82 -289 -273 -373
-385 -447 -596 -552 -1388 -278 -2080 187 -470 542 -867 989 -1105 350 -186
747 -269 1158 -241 1122 74 1994 1011 1992 2139 -2 580 -218 1104 -626 1513
-369 370 -825 580 -1364 627 -130 11 -196 11 -325 -1z m498 -90 c750 -122
1372 -638 1627 -1348 202 -564 149 -1200 -142 -1716 -208 -368 -524 -666 -901
-849 -806 -394 -1754 -233 -2387 404 -256 258 -445 591 -535 944 -250 978 237
1987 1161 2408 213 98 485 166 724 182 104 7 335 -6 453 -25z"/>
<path d="M2190 4064 l0 -45 -42 3 c-42 3 -43 4 -46 41 -3 29 -7 37 -23 37 -17
0 -19 -7 -19 -59 0 -102 10 -151 31 -151 16 0 19 8 19 44 0 37 4 45 23 50 42
11 57 7 57 -16 0 -43 12 -68 31 -68 22 0 23 12 13 133 -6 66 -10 77 -25 77
-16 0 -19 -8 -19 -46z"/>
<path d="M2324 4043 c-69 -153 -66 -143 -43 -143 12 0 28 9 37 19 23 27 76 18
91 -15 11 -25 41 -33 41 -11 0 6 -12 56 -27 109 -25 87 -31 98 -51 98 -18 0
-28 -12 -48 -57z m60 -45 c6 -25 4 -28 -20 -28 -21 0 -25 3 -19 18 4 9 10 25
12 35 7 22 18 11 27 -25z"/>
<path d="M1898 4075 c-55 -31 -40 -97 24 -110 58 -12 68 -16 68 -30 0 -8 -9
-19 -19 -25 -21 -10 -51 -4 -51 11 0 12 -37 12 -45 -1 -12 -19 34 -50 74 -50
49 0 84 27 84 65 0 33 -22 52 -72 61 -48 9 -65 22 -50 40 13 16 59 19 59 4 0
-5 9 -10 19 -10 50 0 24 48 -29 55 -21 3 -46 -1 -62 -10z"/>
<path d="M2493 3988 c-18 -93 -18 -104 -4 -109 22 -9 26 -3 41 66 l13 60 24
-65 c13 -36 26 -71 28 -78 3 -7 15 -12 27 -10 18 3 24 15 39 88 23 110 23 120
0 120 -20 0 -25 -9 -36 -72 -3 -21 -9 -38 -13 -38 -4 0 -16 25 -27 56 -11 31
-25 63 -33 70 -30 30 -40 15 -59 -88z"/>
<path d="M1774 4052 c-6 -4 -19 -28 -29 -54 -20 -54 -30 -54 -39 -3 -7 36 -32
48 -42 21 -3 -7 6 -54 19 -102 20 -75 27 -90 46 -92 20 -3 21 0 15 36 -3 22
-2 42 3 45 5 3 24 -8 42 -24 34 -29 65 -37 76 -20 3 5 -17 28 -44 51 l-49 42
19 45 c10 24 19 49 19 54 0 11 -21 12 -36 1z"/>
<path d="M2727 3932 c-65 -84 -67 -87 -46 -97 18 -8 25 -5 36 12 12 18 18 20
48 10 19 -6 36 -16 36 -24 1 -7 2 -18 3 -24 0 -7 12 -16 25 -21 l24 -8 -7 112
c-10 160 -22 164 -119 40z m73 -16 c0 -29 -3 -33 -20 -29 -24 6 -25 12 -4 41
20 30 24 28 24 -12z"/>
<path d="M1579 3991 c-15 -5 -13 -17 18 -103 34 -93 55 -120 69 -84 5 12 -51
173 -65 187 -3 4 -13 4 -22 0z"/>
<path d="M1450 3943 c-32 -12 -50 -37 -50 -69 0 -41 21 -54 88 -54 34 0 52 -5
55 -14 9 -24 -19 -39 -58 -32 -46 9 -61 -1 -39 -25 39 -43 144 -3 144 55 0 38
-30 56 -93 56 -50 0 -57 2 -57 19 0 23 28 34 63 26 32 -8 47 13 22 32 -19 13
-48 16 -75 6z"/>
<path d="M3010 3900 c-11 -11 -20 -25 -20 -31 0 -17 21 -52 48 -81 20 -22 23
-30 13 -42 -17 -20 -50 -8 -57 20 -4 14 -15 29 -25 35 -16 8 -19 6 -19 -15 0
-38 10 -55 41 -71 89 -46 144 24 78 100 -19 21 -29 41 -25 51 9 23 39 13 54
-19 16 -34 42 -36 42 -3 0 28 -22 53 -57 67 -36 13 -51 11 -73 -11z"/>
<path d="M3166 3743 c-81 -59 -88 -67 -72 -79 14 -10 22 -10 37 -1 29 18 74
-10 74 -47 1 -16 8 -32 19 -38 9 -5 19 -8 20 -6 1 1 12 49 25 106 17 81 20
106 10 118 -6 8 -14 14 -18 14 -3 0 -46 -30 -95 -67z m70 -19 c-3 -9 -6 -22
-6 -30 0 -16 -9 -18 -30 -4 -12 7 -12 12 4 29 23 25 41 28 32 5z"/>
<path d="M1182 3788 c-7 -9 -3 -45 15 -120 23 -101 26 -107 45 -97 15 8 18 17
13 37 -5 23 -1 30 25 45 22 14 34 15 49 7 20 -10 51 -4 51 10 0 10 -165 130
-178 130 -5 0 -14 -6 -20 -12z m77 -72 c23 -24 23 -24 3 -35 -23 -12 -26 -9
-36 32 -8 33 3 35 33 3z"/>
<path d="M1087 3722 c-13 -15 -15 -25 -7 -53 17 -58 14 -61 -35 -37 -41 20
-47 21 -61 7 -14 -14 -8 -19 55 -47 40 -18 77 -42 87 -57 9 -14 23 -25 30 -25
25 0 28 30 6 53 -13 14 -28 52 -37 97 -9 41 -17 75 -19 77 -1 2 -10 -5 -19
-15z"/>
<path d="M1972 3700 c-771 -139 -1316 -848 -1243 -1620 35 -379 191 -704 461
-963 254 -245 579 -390 929 -417 740 -55 1409 426 1585 1140 108 439 22 889
-239 1255 -98 138 -281 309 -430 403 -77 48 -250 127 -343 156 -214 67 -500
85 -720 46z m519 -69 c518 -95 949 -468 1113 -963 50 -150 68 -245 73 -403 10
-248 -32 -452 -140 -685 -129 -278 -395 -542 -681 -675 -211 -98 -386 -138
-616 -138 -184 -1 -319 22 -491 82 -476 168 -843 600 -936 1101 -26 145 -24
403 6 540 63 296 189 529 395 735 238 236 501 367 846 419 83 12 334 5 431
-13z"/>
<path d="M2175 3254 c-134 -74 -349 -124 -535 -124 -94 0 -265 21 -327 39 -30
9 -33 8 -33 -12 0 -12 0 -292 -1 -622 0 -694 -4 -661 102 -865 183 -349 419
-594 767 -795 l83 -48 36 17 c56 27 221 132 303 194 99 75 271 248 344 345
109 147 228 364 262 482 16 54 18 126 21 688 4 616 4 629 -15 623 -117 -38
-362 -55 -509 -37 -121 15 -248 52 -354 104 l-86 43 -58 -32z m25 -1199 c0
-619 -4 -1125 -8 -1125 -16 0 -198 124 -286 194 -195 158 -340 340 -466 586
-99 195 -95 160 -95 810 l0 565 25 -1 c14 -1 78 -8 143 -15 198 -21 452 14
607 85 30 14 61 25 68 25 9 1 12 -230 12 -1124z m205 1081 c224 -79 427 -94
688 -50 l38 7 -3 -579 -3 -579 -27 -80 c-80 -234 -309 -551 -526 -726 -77 -63
-279 -199 -294 -199 -4 0 -8 507 -8 1126 0 1068 1 1126 18 1121 9 -3 62 -22
117 -41z"/>
<path d="M1500 2245 l0 -366 113 3 112 3 5 80 5 79 54 -82 54 -82 144 0 c113
0 143 3 137 13 -5 6 -48 66 -96 131 l-88 119 28 17 c70 44 102 108 102 208 0
85 -27 143 -88 189 -62 47 -97 53 -299 53 l-183 0 0 -365z m418 275 c73 -41
105 -123 83 -208 -16 -59 -48 -91 -111 -112 -30 -10 -54 -21 -53 -25 1 -3 35
-51 75 -106 40 -55 75 -104 76 -110 2 -5 -22 -9 -55 -9 l-58 1 -72 109 c-64
95 -73 115 -73 155 l0 45 61 0 c76 0 92 9 113 61 20 50 14 87 -19 123 -23 25
-29 26 -125 26 l-100 0 0 -260 0 -260 -50 0 -50 0 0 293 c0 162 3 297 8 301 4
4 75 6 157 4 137 -3 154 -5 193 -28z m-78 -124 c6 -8 10 -25 8 -38 -3 -21 -9
-23 -60 -26 l-58 -3 0 41 0 40 49 0 c30 0 53 -5 61 -14z"/>
<path d="M2360 2603 c0 -1 61 -145 135 -320 75 -175 146 -342 158 -370 21 -49
24 -53 57 -53 l35 0 152 358 c84 196 155 364 158 373 5 14 -8 16 -114 15
l-120 -1 -53 -127 c-29 -71 -55 -128 -58 -128 -3 0 -20 37 -39 83 -19 45 -43
103 -54 129 l-19 48 -119 -3 c-65 -1 -119 -3 -119 -4z m208 -92 c23 -64 137
-331 143 -331 3 0 39 81 80 180 l74 180 48 0 c27 0 47 -4 45 -9 -21 -57 -244
-571 -248 -571 -5 0 -211 477 -237 547 l-12 33 49 0 c44 0 49 -2 58 -29z"/>
<path d="M3369 3692 c-98 -112 -111 -132 -98 -148 12 -15 19 -11 62 37 l48 54
-26 -69 c-34 -92 -24 -101 56 -57 33 18 62 31 64 29 3 -2 -13 -22 -35 -43 -43
-42 -48 -56 -26 -74 10 -9 19 -4 39 21 13 18 43 53 66 78 22 25 41 48 41 51 0
3 -9 14 -19 23 -19 17 -22 16 -84 -18 -35 -20 -67 -36 -70 -36 -3 0 6 28 19
62 26 62 26 101 0 111 -8 3 -24 -6 -37 -21z"/>
<path d="M890 3555 c-44 -44 -44 -44 -24 -66 46 -52 126 -129 133 -129 4 0 29
22 54 49 38 40 44 51 33 61 -12 9 -21 4 -47 -24 -30 -34 -33 -35 -51 -20 -24
23 -23 33 8 59 15 13 23 28 20 34 -11 17 -21 14 -50 -15 -26 -26 -27 -26 -46
-9 -20 19 -20 19 15 55 33 34 37 50 10 50 -6 0 -31 -20 -55 -45z"/>
<path d="M3525 3457 c-73 -68 -78 -75 -63 -90 14 -15 22 -10 94 58 72 67 78
75 63 89 -14 15 -22 10 -94 -57z"/>
<path d="M771 3421 c-23 -27 -41 -51 -41 -54 0 -7 161 -140 164 -135 1 1 22
27 46 56 35 43 41 56 29 63 -10 7 -23 -1 -46 -27 -32 -36 -33 -37 -53 -19 -20
18 -20 18 5 51 20 26 22 34 11 43 -11 9 -19 5 -38 -19 -17 -21 -29 -29 -41
-24 -23 9 -21 21 9 61 23 30 25 53 4 53 -4 0 -27 -22 -49 -49z"/>
<path d="M3640 3460 c-12 -8 -11 -13 9 -33 l23 -25 -64 -52 c-66 -56 -79 -76
-54 -86 10 -4 38 13 77 45 33 28 65 51 69 51 5 0 16 -10 24 -21 9 -14 21 -19
31 -15 15 5 13 11 -12 44 -34 46 -80 102 -85 102 -2 0 -10 -5 -18 -10z"/>
<path d="M664 3273 c-15 -16 -32 -40 -40 -55 l-14 -28 84 -56 c47 -31 89 -53
95 -49 18 11 12 32 -15 49 -37 25 -25 40 37 46 41 4 55 9 57 23 3 14 -4 17
-42 17 -32 0 -46 4 -46 14 0 7 -9 25 -21 40 -27 34 -63 34 -95 -1z m64 -25
c16 -16 15 -30 -1 -52 -11 -15 -17 -17 -35 -7 -26 14 -28 34 -6 55 19 19 26
20 42 4z"/>
<path d="M3702 3245 c-45 -31 -82 -59 -82 -63 0 -4 4 -13 9 -21 7 -11 16 -8
47 12 l38 26 24 -36 c21 -30 22 -37 10 -44 -8 -5 -26 -17 -39 -28 -21 -17 -22
-21 -9 -34 13 -13 26 -8 102 42 80 53 87 59 74 76 -13 18 -14 18 -48 -3 -20
-12 -37 -22 -39 -22 -3 0 -13 16 -24 36 -16 31 -17 37 -5 44 39 23 51 36 44
53 -3 9 -9 17 -13 17 -3 0 -43 -25 -89 -55z"/>
<path d="M544 3079 c-26 -54 -33 -74 -24 -83 8 -8 15 -6 25 8 8 10 16 23 18
29 2 6 39 -8 82 -31 58 -31 81 -38 87 -29 15 24 7 33 -68 70 -61 31 -74 41
-69 55 17 40 17 52 1 52 -10 0 -30 -27 -52 -71z"/>
<path d="M3813 3054 c-78 -43 -97 -64 -73 -79 8 -5 159 68 188 90 7 5 -11 35
-22 34 -6 0 -48 -21 -93 -45z"/>
<path d="M480 2941 c0 -13 11 -23 35 -31 39 -13 39 -14 24 -59 -12 -34 -24
-37 -64 -19 -22 10 -28 9 -36 -3 -5 -8 -9 -17 -9 -21 0 -3 43 -23 96 -44 79
-30 98 -34 105 -23 14 22 11 26 -31 43 -22 9 -40 18 -40 21 0 3 7 21 15 41
l14 35 37 -16 c48 -20 56 -19 52 6 -2 17 -22 29 -87 55 -97 39 -111 41 -111
15z"/>
<path d="M3957 2954 c-3 -3 -1 -17 4 -31 5 -14 8 -28 5 -30 -2 -2 -37 -17 -77
-33 -69 -26 -94 -50 -70 -64 5 -3 44 7 87 24 43 16 80 30 82 30 2 0 8 -13 13
-30 6 -16 15 -30 19 -30 21 0 20 26 -5 95 -25 68 -40 86 -58 69z"/>
<path d="M3944 2733 c-80 -22 -91 -28 -86 -45 4 -16 10 -18 42 -13 52 9 59
-14 15 -54 -24 -21 -32 -36 -28 -51 7 -27 11 -26 50 12 26 25 36 29 45 20 18
-18 63 -14 81 6 10 10 17 31 17 47 0 40 -21 105 -34 104 -6 -1 -52 -13 -102
-26z m96 -37 c0 -8 3 -21 6 -29 3 -10 -3 -20 -16 -27 -27 -14 -50 2 -50 36 0
21 4 24 53 33 4 0 7 -5 7 -13z"/>
<path d="M410 2720 c-22 -22 -27 -78 -10 -111 19 -34 64 -25 101 21 39 48 72
54 67 13 -2 -17 -12 -32 -25 -38 -30 -13 -31 -48 -2 -43 53 8 85 114 44 144
-32 24 -55 16 -101 -33 -32 -36 -46 -45 -55 -36 -15 15 -3 50 22 63 10 6 19
17 19 25 0 22 -37 18 -60 -5z"/>
<path d="M4006 2545 c-45 -8 -74 -19 -83 -31 -18 -25 -16 -85 4 -113 15 -23
19 -23 97 -17 45 4 87 8 94 8 15 2 16 48 1 48 -5 0 -41 -5 -79 -11 -75 -13
-100 -5 -100 32 0 25 24 36 103 44 62 7 67 9 67 31 0 27 -3 28 -104 9z"/>
<path d="M535 2530 c-16 -4 -65 -16 -107 -25 -62 -13 -78 -20 -78 -34 0 -23 7
-29 108 -82 45 -24 82 -46 82 -50 0 -3 -18 -14 -39 -24 -37 -16 -41 -16 -56
-1 -20 20 -78 21 -95 1 -6 -8 -14 -41 -17 -74 l-6 -59 96 -7 c106 -8 130 -4
125 22 -2 13 -14 19 -41 21 -52 4 -50 33 3 57 38 17 40 20 40 64 0 33 -5 51
-19 63 -26 23 -15 82 17 86 16 2 22 10 22 28 0 13 -1 24 -2 23 -2 0 -16 -4
-33 -9z m-52 -80 c-6 -24 -5 -23 -38 -8 -33 15 -32 26 3 30 36 5 41 2 35 -22z
m-55 -197 c3 -31 1 -33 -27 -33 -27 0 -31 3 -31 28 0 35 8 44 35 40 15 -2 21
-12 23 -35z"/>
<path d="M3953 2335 c-45 -32 -38 -124 11 -147 35 -15 64 6 85 62 9 25 24 46
33 48 24 5 34 -35 14 -57 -20 -22 -21 -51 -2 -51 22 0 46 40 46 75 0 43 -25
75 -59 75 -33 0 -46 -13 -65 -66 -9 -27 -19 -39 -32 -39 -25 0 -33 52 -10 61
16 6 23 54 8 54 -4 0 -17 -7 -29 -15z"/>
<path d="M4105 2126 l-7 -33 -89 5 c-84 5 -89 4 -89 -15 0 -18 9 -22 88 -29
l87 -9 0 -30 c0 -19 6 -31 16 -33 14 -2 18 11 23 77 4 45 5 85 1 91 -12 19
-24 10 -30 -24z"/>
<path d="M1227 724 c-55 -80 -60 -98 -30 -106 10 -3 123 153 123 172 0 6 -24
21 -33 20 -1 0 -28 -39 -60 -86z"/>
<path d="M1301 677 c-45 -82 -49 -93 -34 -104 21 -16 24 -14 53 46 14 28 28
51 33 51 6 0 13 -114 8 -142 -1 -12 41 -31 49 -21 4 4 27 47 52 94 43 80 45
86 28 97 -17 10 -23 5 -51 -45 -18 -31 -34 -53 -35 -47 -1 5 -5 39 -9 77 -5
51 -11 70 -25 77 -16 9 -25 -2 -69 -83z"/>
<path d="M3021 714 c-61 -51 -29 -107 58 -103 59 3 82 -11 61 -37 -11 -12 -24
-14 -51 -10 -41 7 -58 -6 -39 -29 16 -20 53 -19 93 1 37 20 47 31 47 60 0 43
-22 57 -88 55 -64 -2 -83 9 -61 35 9 11 22 14 44 10 41 -8 68 17 36 33 -33 18
-68 13 -100 -15z"/>
<path d="M2907 664 c-3 -3 5 -31 19 -62 13 -30 22 -57 20 -59 -2 -3 -32 16
-66 41 -49 36 -66 44 -80 36 -17 -9 -16 -16 19 -107 39 -99 46 -109 69 -94 10
6 9 18 -8 60 -11 28 -20 56 -20 62 0 6 27 -10 59 -35 63 -49 68 -51 90 -37 20
13 -53 201 -78 201 -10 0 -20 -3 -24 -6z"/>
<path d="M1522 638 c-23 -23 -13 -63 23 -98 37 -36 44 -57 21 -66 -21 -8 -56
14 -56 35 0 16 -18 31 -36 31 -2 0 -4 -13 -4 -28 0 -70 121 -107 149 -46 14
31 2 60 -39 98 -17 16 -29 34 -27 40 6 19 49 12 61 -9 22 -40 46 -46 46 -12 0
36 -40 67 -86 67 -22 0 -45 -5 -52 -12z"/>
<path d="M1687 603 c-13 -13 -7 -33 11 -33 42 -1 45 -13 19 -98 -26 -83 -25
-92 3 -92 15 0 35 48 54 134 6 26 10 28 41 23 24 -4 35 -1 39 9 6 16 -12 25
-85 44 -24 6 -51 13 -60 16 -8 2 -18 1 -22 -3z"/>
<path d="M2665 583 c-56 -14 -78 -77 -50 -149 19 -51 38 -64 94 -64 48 0 81
35 81 87 0 38 -20 92 -41 110 -18 15 -58 22 -84 16z m60 -57 c25 -38 30 -90
10 -109 -38 -39 -85 2 -85 75 0 59 46 79 75 34z"/>
<path d="M1865 483 c-25 -110 -25 -138 -1 -138 17 0 22 14 38 99 16 81 17 101
6 107 -23 15 -26 10 -43 -68z"/>
<path d="M1940 532 c0 -14 9 -21 31 -26 l32 -6 -7 -53 c-4 -28 -10 -69 -13
-89 -5 -33 -3 -38 15 -38 25 0 29 11 38 99 l7 71 33 0 c27 0 34 4 34 19 0 16
-11 19 -71 25 -39 4 -77 10 -85 13 -9 3 -14 -2 -14 -15z"/>
<path d="M2511 538 c0 -7 8 -56 18 -108 15 -84 20 -95 37 -92 10 2 20 5 21 6
1 1 -6 47 -16 101 -15 89 -20 100 -39 103 -13 2 -22 -2 -21 -10z"/>
<path d="M2410 533 c-76 -7 -100 -14 -100 -28 0 -10 11 -15 34 -15 34 0 34 -1
40 -52 15 -124 16 -126 37 -121 18 5 19 12 13 94 l-7 89 32 0 c24 0 31 4 31
20 0 21 -2 21 -80 13z"/>
<path d="M2130 437 c0 -107 12 -127 79 -127 71 0 85 20 90 126 l3 84 -26 0
c-26 0 -26 -1 -26 -79 0 -82 -11 -106 -46 -99 -24 4 -36 52 -30 121 6 56 5 57
-19 57 -25 0 -25 -1 -25 -83z"/>
<path d="M4167 4346 c-50 -18 -67 -34 -88 -81 -45 -98 -1 -198 97 -225 113
-32 215 57 201 175 -11 102 -114 166 -210 131z m109 -36 c98 -48 98 -187 1
-233 -43 -21 -67 -21 -112 -3 -103 43 -97 194 10 242 41 18 52 17 101 -6z"/>
<path d="M4162 4198 c2 -51 7 -83 15 -85 7 -3 13 9 15 28 4 45 24 47 49 5 11
-20 27 -36 35 -36 18 0 18 10 -3 39 -13 19 -14 28 -5 42 15 24 15 62 0 77 -7
7 -34 12 -60 12 l-49 0 3 -82z m83 32 c0 -20 -6 -26 -27 -28 -24 -3 -28 0 -28
21 0 30 9 39 35 35 14 -2 20 -10 20 -28z"/>
</g>
</svg>
